<svg width="80" height="64" viewBox="0 0 80 64" fill="none" xmlns="http://www.w3.org/2000/svg">
<path d="M8 12C8 7.5875 11.5875 4 16 4H64C68.4125 4 72 7.5875 72 12V44H64V12H16V44H8V12ZM0 50.4C0 49.075 1.075 48 2.4 48H77.6C78.925 48 80 49.075 80 50.4C80 55.7 75.7 60 70.4 60H9.6C4.3 60 0 55.7 0 50.4ZM35.125 26.125L31.25 30L35.125 33.875C36.3 35.05 36.3 36.95 35.125 38.1125C33.95 39.275 32.05 39.2875 30.8875 38.1125L24.8875 32.1125C23.7125 30.9375 23.7125 29.0375 24.8875 27.875L30.8875 21.875C32.0625 20.7 33.9625 20.7 35.125 21.875C36.2875 23.05 36.3 24.95 35.125 26.1125V26.125ZM49.125 21.875L55.125 27.875C56.3 29.05 56.3 30.95 55.125 32.1125L49.125 38.1125C47.95 39.2875 46.05 39.2875 44.8875 38.1125C43.725 36.9375 43.7125 35.0375 44.8875 33.875L48.7625 30L44.8875 26.125C43.7125 24.95 43.7125 23.05 44.8875 21.8875C46.0625 20.725 47.9625 20.7125 49.125 21.8875V21.875Z" fill="white"/>
</svg>
