<svg width="80" height="80" viewBox="0 0 80 80" fill="none" xmlns="http://www.w3.org/2000/svg">
<path d="M53.3333 53.3334C53.3333 49.65 42.8867 46.6667 30 46.6667M53.3333 53.3334C53.3333 57.0167 42.8867 60 30 60C17.1133 60 6.66666 57.0167 6.66666 53.3334M53.3333 53.3334V69.79C53.3333 73.5867 42.8867 76.6667 30 76.6667C17.1133 76.6667 6.66666 73.59 6.66666 69.79V53.3334M53.3333 53.3334C66.08 53.3334 76.6667 50.0434 76.6667 46.6667V13.3334M30 46.6667C17.1133 46.6667 6.66666 49.65 6.66666 53.3334M30 46.6667C15.2733 46.6667 3.33333 43.3767 3.33333 40V23.3334M30 16.6667C15.2733 16.6667 3.33333 19.65 3.33333 23.3334M3.33333 23.3334C3.33333 27.0167 15.2733 30 30 30C30 33.3767 40.8433 36.6667 53.59 36.6667C66.3367 36.6667 76.6667 33.3767 76.6667 30M76.6667 13.3334C76.6667 9.65002 66.3333 6.66669 53.59 6.66669C40.8467 6.66669 30.5133 9.65002 30.5133 13.3334M76.6667 13.3334C76.6667 17.0167 66.3333 20 53.59 20C40.8467 20 30.5133 17.0167 30.5133 13.3334M30.5133 13.3334V47.22" stroke="white" stroke-width="6.66667"/>
</svg>
