<svg width="40" height="40" viewBox="0 0 40 40" fill="none" xmlns="http://www.w3.org/2000/svg">
<rect x="4" y="4" width="32" height="32" rx="9" fill="white"/>
<path fill-rule="evenodd" clip-rule="evenodd" d="M20 36.6667C12.1433 36.6667 8.21499 36.6667 5.77333 34.225C3.33333 31.7867 3.33333 27.8567 3.33333 20C3.33333 12.1433 3.33333 8.215 5.77333 5.77334C8.21666 3.33334 12.1433 3.33334 20 3.33334C27.8567 3.33334 31.785 3.33334 34.225 5.77334C36.6667 8.21667 36.6667 12.1433 36.6667 20C36.6667 27.8567 36.6667 31.785 34.225 34.225C31.7867 36.6667 27.8567 36.6667 20 36.6667ZM24.1233 14.0317C24.3801 14.2412 24.5431 14.5442 24.5765 14.8739C24.61 15.2036 24.5111 15.5332 24.3017 15.79L14.7783 27.4567C14.6611 27.6003 14.5134 27.716 14.3459 27.7955C14.1784 27.875 13.9954 27.9162 13.81 27.9162C13.6246 27.9162 13.4416 27.875 13.2741 27.7955C13.1066 27.716 12.9589 27.6003 12.8417 27.4567L9.03166 22.79C8.83057 22.5323 8.7384 22.2062 8.7749 21.8814C8.81139 21.5566 8.97365 21.259 9.2269 21.0524C9.48015 20.8458 9.80425 20.7466 10.1298 20.776C10.4553 20.8055 10.7563 20.9613 10.9683 21.21L13.81 24.69L22.365 14.21C22.5746 13.9533 22.8775 13.7902 23.2072 13.7568C23.537 13.7234 23.8665 13.8222 24.1233 14.0317ZM30.79 14.0317C31.0467 14.2412 31.2098 14.5442 31.2432 14.8739C31.2766 15.2036 31.1778 15.5332 30.9683 15.79L21.445 27.4567C21.3207 27.6093 21.1622 27.7305 20.9823 27.8102C20.8023 27.89 20.6061 27.9262 20.4096 27.9158C20.213 27.9054 20.0217 27.8487 19.8512 27.7504C19.6807 27.6521 19.5358 27.5149 19.4283 27.35L18.9533 26.62C18.8105 26.4009 18.7401 26.1425 18.7519 25.8812C18.7636 25.6199 18.8571 25.3689 19.019 25.1636C19.181 24.9582 19.4033 24.8088 19.6546 24.7364C19.9059 24.664 20.1736 24.6722 20.42 24.76L29.0317 14.21C29.2412 13.9533 29.5442 13.7902 29.8739 13.7568C30.2036 13.7234 30.5331 13.8222 30.79 14.0317Z" fill="url(#paint0_linear_1_60)"/>
<defs>
<linearGradient id="paint0_linear_1_60" x1="20" y1="3.33334" x2="20" y2="36.6667" gradientUnits="userSpaceOnUse">
<stop stop-color="#E55712"/>
<stop offset="1" stop-color="#5447DE"/>
</linearGradient>
</defs>
</svg>
