<svg width="80" height="80" viewBox="0 0 80 80" fill="none" xmlns="http://www.w3.org/2000/svg">
<g clip-path="url(#clip0_1_68)">
<path d="M13.3333 20V53.3333H30V40C30 38.2319 30.7024 36.5362 31.9526 35.2859C33.2029 34.0357 34.8986 33.3333 36.6667 33.3333H53.3333C55.1014 33.3333 56.7971 34.0357 58.0474 35.2859C59.2976 36.5362 60 38.2319 60 40V53.3333H66.6667V20H13.3333ZM0 66.6666V60H13.3333C11.5652 60 9.86953 59.2976 8.61929 58.0474C7.36905 56.7971 6.66667 55.1014 6.66667 53.3333V20C6.66667 18.2319 7.36905 16.5362 8.61929 15.2859C9.86953 14.0357 11.5652 13.3333 13.3333 13.3333H66.6667C68.4348 13.3333 70.1305 14.0357 71.3807 15.2859C72.631 16.5362 73.3333 18.2319 73.3333 20V53.3333C73.3333 55.1014 72.631 56.7971 71.3807 58.0474C70.1305 59.2976 68.4348 60 66.6667 60H80V66.6666H60C60 68.4348 59.2976 70.1304 58.0474 71.3807C56.7971 72.6309 55.1014 73.3333 53.3333 73.3333H36.6667C34.8986 73.3333 33.2029 72.6309 31.9526 71.3807C30.7024 70.1304 30 68.4348 30 66.6666H0ZM38.3333 66.6666C37.8913 66.6666 37.4674 66.8422 37.1548 67.1548C36.8423 67.4674 36.6667 67.8913 36.6667 68.3333C36.6667 68.7753 36.8423 69.1993 37.1548 69.5118C37.4674 69.8244 37.8913 70 38.3333 70C38.7754 70 39.1993 69.8244 39.5118 69.5118C39.8244 69.1993 40 68.7753 40 68.3333C40 67.8913 39.8244 67.4674 39.5118 67.1548C39.1993 66.8422 38.7754 66.6666 38.3333 66.6666ZM51.6667 66.6666C51.2246 66.6666 50.8007 66.8422 50.4882 67.1548C50.1756 67.4674 50 67.8913 50 68.3333C50 68.7753 50.1756 69.1993 50.4882 69.5118C50.8007 69.8244 51.2246 70 51.6667 70C52.1087 70 52.5326 69.8244 52.8452 69.5118C53.1577 69.1993 53.3333 68.7753 53.3333 68.3333C53.3333 67.8913 53.1577 67.4674 52.8452 67.1548C52.5326 66.8422 52.1087 66.6666 51.6667 66.6666ZM43.3333 66.6666V70H46.6667V66.6666H43.3333ZM36.6667 40V63.3333H53.3333V40H36.6667Z" fill="white"/>
</g>
<defs>
<clipPath id="clip0_1_68">
<rect width="80" height="80" fill="white"/>
</clipPath>
</defs>
</svg>
