<svg width="80" height="80" viewBox="0 0 80 80" fill="none" xmlns="http://www.w3.org/2000/svg">
<path d="M66.7692 21.1385L40.6154 9.50777C40.4228 9.41724 40.2127 9.3703 40 9.3703C39.7872 9.3703 39.5771 9.41724 39.3846 9.50777L13.2308 21.1385C12.9603 21.2565 12.7295 21.4498 12.5659 21.6953C12.4022 21.9408 12.3126 22.2281 12.3077 22.5232V30.7693C12.3077 45.9078 21.3538 64.2462 39.4461 70.5847C39.8053 70.7066 40.1947 70.7066 40.5538 70.5847C58.6461 64.2462 67.6923 45.9078 67.6923 30.7693V22.5232C67.6874 22.2281 67.5978 21.9408 67.4341 21.6953C67.2705 21.4498 67.0397 21.2565 66.7692 21.1385ZM54.4246 31.3232L38.1784 52.0062C37.9423 52.3044 37.646 52.5495 37.3088 52.7255C36.9716 52.9015 36.6012 53.0045 36.2215 53.0278L36.0615 53.0339C35.3461 53.0327 34.6603 52.7484 34.1538 52.2431L25.7846 43.8739C25.2799 43.368 24.9968 42.6822 24.9977 41.9676C24.9985 41.2529 25.2833 40.5679 25.7892 40.0632C26.2952 39.5584 26.9809 39.2754 27.6956 39.2762C28.4102 39.2771 29.0953 39.5618 29.6 40.0678L35.8215 46.2893L50.1908 27.997C50.64 27.4587 51.2813 27.1165 51.9786 27.0433C52.6759 26.97 53.3743 27.1713 53.9256 27.6045C54.4769 28.0377 54.8377 28.6687 54.9315 29.3635C55.0252 30.0584 54.8445 30.7624 54.4277 31.3262L54.4246 31.3232Z" fill="white"/>
</svg>
