<svg width="80" height="80" viewBox="0 0 80 80" fill="none" xmlns="http://www.w3.org/2000/svg">
<path d="M23.0667 23.1867L18.1667 18.2433M49.1967 23.1867L54.0967 18.2433M18.1633 54.51L23.0633 49.5633M36.13 16.5967V10M16.53 36.3767H10M56.25 56.12L68.9633 51.1C69.2701 50.9773 69.533 50.7654 69.7182 50.4918C69.9034 50.2182 70.0024 49.8954 70.0024 49.565C70.0024 49.2346 69.9034 48.9118 69.7182 48.6382C69.533 48.3646 69.2701 48.1527 68.9633 48.03L38.4133 35.98C38.1159 35.8649 37.7914 35.839 37.4795 35.9055C37.1676 35.972 36.8819 36.128 36.6573 36.3544C36.4326 36.5807 36.2789 36.8677 36.2149 37.1801C36.1508 37.4925 36.1792 37.8168 36.2967 38.1133L48.2367 68.95C48.7767 70.35 50.7367 70.35 51.2767 68.95L56.25 56.12Z" stroke="url(#paint0_linear_9_109)" stroke-width="5" stroke-linecap="round" stroke-linejoin="round"/>
<defs>
<linearGradient id="paint0_linear_9_109" x1="40.0012" y1="10" x2="40.0012" y2="70" gradientUnits="userSpaceOnUse">
<stop stop-color="#E55712"/>
<stop offset="1" stop-color="#5447DE"/>
</linearGradient>
</defs>
</svg>
